<mxfile host="app.diagrams.net" modified="2023-12-20T06:35:06.799Z" agent="Mozilla/5.0 (Windows NT 10.0; Win64; x64) AppleWebKit/537.36 (KHTML, like Gecko) Chrome/120.0.0.0 Safari/537.36" etag="73gBwlM0ktHM8T61LYiN" version="22.1.11" type="github">
  <diagram name="Page-1" id="kiba_quS-7--ukef3crK">
    <mxGraphModel dx="934" dy="852" grid="1" gridSize="10" guides="1" tooltips="1" connect="1" arrows="1" fold="1" page="1" pageScale="1" pageWidth="850" pageHeight="1100" math="0" shadow="0">
      <root>
        <mxCell id="0" />
        <mxCell id="1" parent="0" />
        <mxCell id="7xEql9J137SkZCdJPXb1-22" value="" style="ellipse;whiteSpace=wrap;html=1;" vertex="1" parent="1">
          <mxGeometry x="320" y="470" width="190" height="50" as="geometry" />
        </mxCell>
        <mxCell id="7xEql9J137SkZCdJPXb1-23" value="" style="ellipse;whiteSpace=wrap;html=1;" vertex="1" parent="1">
          <mxGeometry x="320" y="660" width="190" height="50" as="geometry" />
        </mxCell>
        <mxCell id="7xEql9J137SkZCdJPXb1-1" value="Nurse" style="shape=umlActor;verticalLabelPosition=bottom;verticalAlign=top;html=1;outlineConnect=0;" vertex="1" parent="1">
          <mxGeometry x="70" y="120" width="30" height="60" as="geometry" />
        </mxCell>
        <mxCell id="7xEql9J137SkZCdJPXb1-2" value="Doctor" style="shape=umlActor;verticalLabelPosition=bottom;verticalAlign=top;html=1;outlineConnect=0;" vertex="1" parent="1">
          <mxGeometry x="710" y="80" width="30" height="60" as="geometry" />
        </mxCell>
        <mxCell id="7xEql9J137SkZCdJPXb1-3" value="Patient" style="shape=umlActor;verticalLabelPosition=bottom;verticalAlign=top;html=1;outlineConnect=0;" vertex="1" parent="1">
          <mxGeometry x="70" y="400" width="30" height="60" as="geometry" />
        </mxCell>
        <mxCell id="7xEql9J137SkZCdJPXb1-4" value="Hospital Staff" style="shape=umlActor;verticalLabelPosition=bottom;verticalAlign=top;html=1;outlineConnect=0;" vertex="1" parent="1">
          <mxGeometry x="730" y="400" width="30" height="60" as="geometry" />
        </mxCell>
        <mxCell id="7xEql9J137SkZCdJPXb1-5" value="" style="ellipse;whiteSpace=wrap;html=1;" vertex="1" parent="1">
          <mxGeometry x="320" y="40" width="190" height="50" as="geometry" />
        </mxCell>
        <mxCell id="7xEql9J137SkZCdJPXb1-8" value="" style="ellipse;whiteSpace=wrap;html=1;" vertex="1" parent="1">
          <mxGeometry x="310" y="280" width="190" height="50" as="geometry" />
        </mxCell>
        <mxCell id="7xEql9J137SkZCdJPXb1-11" value="" style="ellipse;whiteSpace=wrap;html=1;" vertex="1" parent="1">
          <mxGeometry x="320" y="380" width="190" height="50" as="geometry" />
        </mxCell>
        <mxCell id="7xEql9J137SkZCdJPXb1-12" value="providing patients health care" style="text;strokeColor=none;align=center;fillColor=none;html=1;verticalAlign=middle;whiteSpace=wrap;rounded=0;" vertex="1" parent="1">
          <mxGeometry x="340" y="390" width="170" height="30" as="geometry" />
        </mxCell>
        <mxCell id="7xEql9J137SkZCdJPXb1-15" value="develop treatment plans" style="text;strokeColor=none;align=center;fillColor=none;html=1;verticalAlign=middle;whiteSpace=wrap;rounded=0;rotation=0;" vertex="1" parent="1">
          <mxGeometry x="335" y="480" width="140" height="30" as="geometry" />
        </mxCell>
        <mxCell id="7xEql9J137SkZCdJPXb1-48" value="" style="edgeStyle=orthogonalEdgeStyle;rounded=0;orthogonalLoop=1;jettySize=auto;html=1;dashed=1;" edge="1" parent="1">
          <mxGeometry relative="1" as="geometry">
            <mxPoint x="400" y="330" as="sourcePoint" />
            <mxPoint x="395" y="380" as="targetPoint" />
            <Array as="points">
              <mxPoint x="395" y="330" />
            </Array>
          </mxGeometry>
        </mxCell>
        <mxCell id="7xEql9J137SkZCdJPXb1-16" value="diagnosing" style="text;strokeColor=none;align=center;fillColor=none;html=1;verticalAlign=middle;whiteSpace=wrap;rounded=0;" vertex="1" parent="1">
          <mxGeometry x="335" y="275" width="130" height="60" as="geometry" />
        </mxCell>
        <mxCell id="7xEql9J137SkZCdJPXb1-19" value="Registering patient&#39;s personal information&amp;nbsp;" style="text;strokeColor=none;align=center;fillColor=none;html=1;verticalAlign=middle;whiteSpace=wrap;rounded=0;" vertex="1" parent="1">
          <mxGeometry x="335" y="50" width="160" height="30" as="geometry" />
        </mxCell>
        <mxCell id="7xEql9J137SkZCdJPXb1-20" value="Billing handling&amp;nbsp;" style="text;strokeColor=none;align=center;fillColor=none;html=1;verticalAlign=middle;whiteSpace=wrap;rounded=0;" vertex="1" parent="1">
          <mxGeometry x="375" y="670" width="90" height="30" as="geometry" />
        </mxCell>
        <mxCell id="7xEql9J137SkZCdJPXb1-36" value="" style="endArrow=classic;html=1;rounded=0;exitX=0;exitY=0.3333333333333333;exitDx=0;exitDy=0;exitPerimeter=0;entryX=1;entryY=0.5;entryDx=0;entryDy=0;" edge="1" parent="1" source="7xEql9J137SkZCdJPXb1-2" target="7xEql9J137SkZCdJPXb1-8">
          <mxGeometry width="50" height="50" relative="1" as="geometry">
            <mxPoint x="600" y="150" as="sourcePoint" />
            <mxPoint x="650" y="100" as="targetPoint" />
          </mxGeometry>
        </mxCell>
        <mxCell id="7xEql9J137SkZCdJPXb1-39" value="" style="endArrow=none;html=1;rounded=0;exitX=1;exitY=0.5;exitDx=0;exitDy=0;" edge="1" parent="1">
          <mxGeometry width="50" height="50" relative="1" as="geometry">
            <mxPoint x="460.0000000000002" y="235" as="sourcePoint" />
            <mxPoint x="710" y="100" as="targetPoint" />
          </mxGeometry>
        </mxCell>
        <mxCell id="7xEql9J137SkZCdJPXb1-40" value="" style="endArrow=classic;html=1;rounded=0;exitX=1;exitY=0.3333333333333333;exitDx=0;exitDy=0;exitPerimeter=0;entryX=0;entryY=0.5;entryDx=0;entryDy=0;" edge="1" parent="1" source="7xEql9J137SkZCdJPXb1-1" target="7xEql9J137SkZCdJPXb1-11">
          <mxGeometry width="50" height="50" relative="1" as="geometry">
            <mxPoint x="130" y="190" as="sourcePoint" />
            <mxPoint x="180" y="140" as="targetPoint" />
          </mxGeometry>
        </mxCell>
        <mxCell id="7xEql9J137SkZCdJPXb1-42" value="" style="endArrow=classic;html=1;rounded=0;exitX=0;exitY=0.3333333333333333;exitDx=0;exitDy=0;exitPerimeter=0;entryX=1;entryY=0.5;entryDx=0;entryDy=0;" edge="1" parent="1" target="7xEql9J137SkZCdJPXb1-23">
          <mxGeometry width="50" height="50" relative="1" as="geometry">
            <mxPoint x="731.8599999999998" y="430" as="sourcePoint" />
            <mxPoint x="475.0000000000001" y="674.45" as="targetPoint" />
          </mxGeometry>
        </mxCell>
        <mxCell id="7xEql9J137SkZCdJPXb1-43" value="" style="endArrow=classic;html=1;rounded=0;exitX=0;exitY=0.3333333333333333;exitDx=0;exitDy=0;exitPerimeter=0;entryX=0.912;entryY=0.76;entryDx=0;entryDy=0;entryPerimeter=0;" edge="1" parent="1" source="7xEql9J137SkZCdJPXb1-4">
          <mxGeometry width="50" height="50" relative="1" as="geometry">
            <mxPoint x="650" y="410" as="sourcePoint" />
            <mxPoint x="488.28" y="147.9999999999999" as="targetPoint" />
          </mxGeometry>
        </mxCell>
        <mxCell id="7xEql9J137SkZCdJPXb1-44" value="" style="endArrow=none;html=1;rounded=0;entryX=0.024;entryY=0.348;entryDx=0;entryDy=0;entryPerimeter=0;" edge="1" parent="1" target="7xEql9J137SkZCdJPXb1-23">
          <mxGeometry width="50" height="50" relative="1" as="geometry">
            <mxPoint x="100" y="420" as="sourcePoint" />
            <mxPoint x="320" y="570" as="targetPoint" />
          </mxGeometry>
        </mxCell>
        <mxCell id="7xEql9J137SkZCdJPXb1-46" value="" style="endArrow=none;html=1;rounded=0;entryX=0;entryY=0.75;entryDx=0;entryDy=0;" edge="1" parent="1" target="7xEql9J137SkZCdJPXb1-16">
          <mxGeometry width="50" height="50" relative="1" as="geometry">
            <mxPoint x="100" y="420" as="sourcePoint" />
            <mxPoint x="150" y="370" as="targetPoint" />
          </mxGeometry>
        </mxCell>
        <mxCell id="7xEql9J137SkZCdJPXb1-47" value="" style="endArrow=classic;html=1;rounded=0;entryX=0.911;entryY=0.195;entryDx=0;entryDy=0;entryPerimeter=0;exitX=0;exitY=0.3333333333333333;exitDx=0;exitDy=0;exitPerimeter=0;" edge="1" parent="1" source="7xEql9J137SkZCdJPXb1-2" target="7xEql9J137SkZCdJPXb1-22">
          <mxGeometry width="50" height="50" relative="1" as="geometry">
            <mxPoint x="710" y="110" as="sourcePoint" />
            <mxPoint x="820" y="400" as="targetPoint" />
          </mxGeometry>
        </mxCell>
        <mxCell id="7xEql9J137SkZCdJPXb1-49" value="&amp;lt;includes&amp;gt;" style="text;html=1;align=center;verticalAlign=middle;resizable=0;points=[];autosize=1;strokeColor=none;fillColor=none;" vertex="1" parent="1">
          <mxGeometry x="370" y="338" width="80" height="30" as="geometry" />
        </mxCell>
        <mxCell id="7xEql9J137SkZCdJPXb1-53" value="Request for an appointment" style="ellipse;whiteSpace=wrap;html=1;" vertex="1" parent="1">
          <mxGeometry x="315" y="125" width="200" height="50" as="geometry" />
        </mxCell>
        <mxCell id="7xEql9J137SkZCdJPXb1-54" value="Confirm an appointment" style="ellipse;whiteSpace=wrap;html=1;" vertex="1" parent="1">
          <mxGeometry x="320" y="200" width="200" height="50" as="geometry" />
        </mxCell>
        <mxCell id="7xEql9J137SkZCdJPXb1-56" style="edgeStyle=orthogonalEdgeStyle;rounded=0;orthogonalLoop=1;jettySize=auto;html=1;exitX=0.5;exitY=1;exitDx=0;exitDy=0;entryX=0.664;entryY=0.001;entryDx=0;entryDy=0;entryPerimeter=0;dashed=1;" edge="1" parent="1" source="7xEql9J137SkZCdJPXb1-54" target="7xEql9J137SkZCdJPXb1-16">
          <mxGeometry relative="1" as="geometry" />
        </mxCell>
        <mxCell id="7xEql9J137SkZCdJPXb1-57" value="&amp;lt;includes&amp;gt;" style="text;html=1;align=center;verticalAlign=middle;resizable=0;points=[];autosize=1;strokeColor=none;fillColor=none;" vertex="1" parent="1">
          <mxGeometry x="370" y="245" width="80" height="30" as="geometry" />
        </mxCell>
        <mxCell id="7xEql9J137SkZCdJPXb1-58" value="" style="endArrow=classic;html=1;rounded=0;entryX=0.073;entryY=0.789;entryDx=0;entryDy=0;entryPerimeter=0;" edge="1" parent="1" target="7xEql9J137SkZCdJPXb1-53">
          <mxGeometry width="50" height="50" relative="1" as="geometry">
            <mxPoint x="100" y="420" as="sourcePoint" />
            <mxPoint x="150" y="370" as="targetPoint" />
          </mxGeometry>
        </mxCell>
        <mxCell id="7xEql9J137SkZCdJPXb1-59" value="" style="endArrow=none;html=1;rounded=0;entryX=0.054;entryY=0.701;entryDx=0;entryDy=0;entryPerimeter=0;" edge="1" parent="1" target="7xEql9J137SkZCdJPXb1-54">
          <mxGeometry width="50" height="50" relative="1" as="geometry">
            <mxPoint x="100" y="420" as="sourcePoint" />
            <mxPoint x="150" y="370" as="targetPoint" />
          </mxGeometry>
        </mxCell>
        <mxCell id="7xEql9J137SkZCdJPXb1-60" value="" style="endArrow=classic;html=1;rounded=0;entryX=0;entryY=0.5;entryDx=0;entryDy=0;" edge="1" parent="1" target="7xEql9J137SkZCdJPXb1-5">
          <mxGeometry width="50" height="50" relative="1" as="geometry">
            <mxPoint x="100" y="420" as="sourcePoint" />
            <mxPoint x="150" y="340" as="targetPoint" />
          </mxGeometry>
        </mxCell>
        <mxCell id="7xEql9J137SkZCdJPXb1-61" value="" style="endArrow=none;html=1;rounded=0;entryX=0.917;entryY=0.866;entryDx=0;entryDy=0;entryPerimeter=0;" edge="1" parent="1" target="7xEql9J137SkZCdJPXb1-5">
          <mxGeometry width="50" height="50" relative="1" as="geometry">
            <mxPoint x="730" y="420" as="sourcePoint" />
            <mxPoint x="760" y="270" as="targetPoint" />
          </mxGeometry>
        </mxCell>
        <mxCell id="7xEql9J137SkZCdJPXb1-62" value="providing medications and treatment" style="ellipse;whiteSpace=wrap;html=1;" vertex="1" parent="1">
          <mxGeometry x="320" y="560" width="190" height="50" as="geometry" />
        </mxCell>
        <mxCell id="7xEql9J137SkZCdJPXb1-63" value="" style="endArrow=classic;html=1;rounded=0;entryX=0.967;entryY=0.301;entryDx=0;entryDy=0;entryPerimeter=0;" edge="1" parent="1" target="7xEql9J137SkZCdJPXb1-62">
          <mxGeometry width="50" height="50" relative="1" as="geometry">
            <mxPoint x="710" y="100" as="sourcePoint" />
            <mxPoint x="830" y="240" as="targetPoint" />
          </mxGeometry>
        </mxCell>
        <mxCell id="7xEql9J137SkZCdJPXb1-64" value="" style="endArrow=none;html=1;rounded=0;exitX=1;exitY=0.3333333333333333;exitDx=0;exitDy=0;exitPerimeter=0;entryX=0.075;entryY=0.795;entryDx=0;entryDy=0;entryPerimeter=0;" edge="1" parent="1" source="7xEql9J137SkZCdJPXb1-3" target="7xEql9J137SkZCdJPXb1-62">
          <mxGeometry width="50" height="50" relative="1" as="geometry">
            <mxPoint x="110" y="420" as="sourcePoint" />
            <mxPoint x="310" y="580" as="targetPoint" />
          </mxGeometry>
        </mxCell>
      </root>
    </mxGraphModel>
  </diagram>
</mxfile>
